<?xml version="1.0" encoding="utf-8"?>
<!-- Generator: Adobe Illustrator 24.3.0, SVG Export Plug-In . SVG Version: 6.00 Build 0)  -->
<svg version="1.1" id="Layer_1" xmlns="http://www.w3.org/2000/svg" xmlns:xlink="http://www.w3.org/1999/xlink" x="0px" y="0px"
	 viewBox="0 0 276.3 297.7" style="enable-background:new 0 0 276.3 297.7;" xml:space="preserve">
<style type="text/css">
	.st0{display:none;fill:#D9C660;}
	.st1{fill:#D9C660;stroke:#514F00;stroke-miterlimit:10;}
	.st2{fill:#A5A000;}
	.st3{fill:none;stroke:#514F00;stroke-miterlimit:10;}
</style>
<g>
	<g>
		<path class="st0" d="M218.1,2.4H58.7C27.6,2.4,2.3,27.6,2.3,58.8v180.8c0,31.2,25.3,56.4,56.4,56.4h0.9
			c0.2-15.9,0.2-31.8,0.2-47.8c0-17.1-0.1-34.2-0.3-51.2l-0.1-12.8l-0.1-6.4c-0.1-2.1-0.2-4.3-0.5-6.4c-0.2-2.1-0.6-4.3-0.8-6.4
			c-0.2-2.1-0.3-4.3-0.5-6.4l-0.7-12.8l-0.7-12.8l-0.6-12.8c-0.3-6.2-0.6-12.4-0.9-18.6c-0.2-3.8,2.9-7,6.7-7s6.9,3.2,6.7,7
			c-0.2,6.2-0.5,12.4-0.9,18.6l-0.6,12.8l-0.7,12.8l-0.7,12.8c-0.1,2.1-0.2,4.3-0.5,6.4c-0.2,2.1-0.5,4.3-0.8,6.4
			c-0.3,2.1-0.4,4.3-0.5,6.4l-0.1,6.4L63.3,197c-0.2,17.1-0.3,34.2-0.3,51.2c-0.1,15.9,0,31.8,0.2,47.8h15.2l-0.2-26.5l-0.4-29.9
			l-0.5-29.9c-0.2-10-0.3-20-0.7-29.9c-0.3-10-0.8-19.9-1.2-29.9c-0.4-10-1.1-19.9-1.6-29.9c-0.4-10-0.5-19.9-0.3-29.9
			c0.2-8.3,0.5-16.6,1.1-24.9c0.2-2.8,2.6-5,5.5-5s5.2,2.2,5.5,5c0.7,8.3,1,16.6,1.1,24.9c0.2,10,0.1,19.9-0.3,29.9
			c-0.4,10-1.2,20-1.6,29.9c-0.4,10-0.9,19.9-1.2,29.9c-0.3,10-0.5,20-0.7,29.9l-0.6,29.9l-0.4,29.9L81.6,296h16.8
			c0.2-20,0.2-50.5-0.1-69.1L98.1,212l-0.3-14.8c-0.1-4.9-0.2-9.9-0.5-14.8c-0.2-4.9-0.6-9.9-1-14.8s-0.8-9.9-1-14.8
			c-0.3-4.9-0.4-9.9-0.6-14.8c-0.3-9.9-0.5-19.8-0.6-29.7c-0.1-9.9-0.1-19.8,0.1-29.6l0.2-14.8l0-4.7h0v-7.7c0-3.1,2.5-5.6,5.6-5.6
			c3.1,0,5.6,2.5,5.6,5.6v7.7l0,4.7l0.2,14.8c0.1,9.9,0.2,19.8,0.1,29.6c0,9.9-0.2,19.8-0.6,29.7c-0.2,4.9-0.3,9.9-0.6,14.8
			c-0.2,4.9-0.6,9.9-1,14.8c-0.4,4.9-0.8,9.9-1,14.8c-0.3,4.9-0.3,9.9-0.4,14.8l-0.3,14.8l-0.2,14.8c-0.2,18.7-0.3,49.1-0.1,69.1
			h14.9c0.2-20.4-0.1-40.8-0.6-61.2c-0.3-10.8-0.6-21.6-1-32.3c-0.5-10.8-1.2-21.6-1.8-32.3c-0.7-10.8-1.2-21.6-1.5-32.3l-0.2-8.1
			l-0.1-8.1c-0.1-5.4-0.2-10.8-0.3-16.2c-0.2-19.2-0.2-38.5,0.3-57.8c0.1-3.9,3.3-6.9,7.2-6.9c3.9,0,7.1,3.1,7.2,6.9
			c0.5,19.2,0.5,38.5,0.3,57.8c0,5.4-0.2,10.8-0.3,16.2l-0.2,8.1l-0.2,8.1c-0.3,10.8-0.9,21.6-1.5,32.3c-0.6,10.8-1.3,21.6-1.8,32.3
			c-0.5,10.8-0.7,21.6-1,32.3c-0.5,20.4-0.8,40.8-0.6,61.2h16.3c0.2-20.7-0.1-41.3-0.6-62c-0.3-10.9-0.6-21.8-1-32.7
			c-0.5-10.9-1.2-21.8-1.8-32.7c-0.7-10.9-1.2-21.8-1.5-32.7l-0.2-8.2l-0.2-8.2c-0.1-5.5-0.2-10.9-0.3-16.4
			c-0.2-19.5-0.2-39,0.3-58.5c0.1-3.9,3.3-7,7.2-7c3.9,0,7.1,3.1,7.2,7c0.5,19.5,0.5,39,0.3,58.5c0,5.5-0.2,10.9-0.3,16.4l-0.2,8.2
			l-0.2,8.2c-0.3,10.9-0.9,21.8-1.5,32.7c-0.6,10.9-1.3,21.8-1.8,32.7c-0.5,10.9-0.7,21.8-1,32.7c-0.5,20.7-0.8,41.3-0.6,62H157
			c0.1-20.4-0.1-40.8-0.6-61.2c-0.3-10.8-0.6-21.6-1-32.3c-0.5-10.8-1.2-21.6-1.8-32.3c-0.7-10.8-1.2-21.6-1.5-32.3l-0.2-8.1
			l-0.2-8.1c-0.1-5.4-0.2-10.8-0.3-16.2c-0.2-19.2-0.2-38.5,0.3-57.8c0.1-3.9,3.3-6.9,7.2-6.9c3.9,0,7.1,3.1,7.2,6.9
			c0.5,19.2,0.5,38.5,0.3,57.8c0,5.4-0.2,10.8-0.3,16.2l-0.2,8.1l-0.2,8.1c-0.3,10.8-0.9,21.6-1.5,32.3c-0.6,10.8-1.3,21.6-1.8,32.3
			c-0.5,10.8-0.7,21.6-1,32.3c-0.5,20.4-0.8,40.8-0.6,61.2H176c0.2-20,0.2-50.5-0.1-69.1l-0.2-14.8l-0.3-14.8
			c-0.1-4.9-0.2-9.9-0.5-14.8c-0.2-4.9-0.6-9.9-1-14.8s-0.8-9.9-1-14.8c-0.3-4.9-0.4-9.9-0.6-14.8c-0.3-9.9-0.5-19.8-0.6-29.7
			c-0.1-9.9,0-19.8,0.1-29.6l0.2-14.8l0-4.7h0v-7.7c0-3.1,2.5-5.6,5.6-5.6c3.1,0,5.6,2.5,5.6,5.6v7.7l0,4.7l0.2,14.8
			c0.1,9.9,0.2,19.8,0.1,29.6c0,9.9-0.2,19.8-0.6,29.7c-0.2,4.9-0.3,9.9-0.6,14.8c-0.2,4.9-0.6,9.9-1,14.8c-0.4,4.9-0.8,9.9-1,14.8
			c-0.3,4.9-0.4,9.9-0.5,14.8l-0.3,14.8l-0.2,14.8c-0.2,18.7-0.3,49.1-0.1,69.1h15.3l-0.2-26.5l-0.4-29.9l-0.5-29.9
			c-0.2-10-0.3-20-0.7-29.9c-0.3-10-0.8-19.9-1.2-29.9c-0.4-10-1.1-19.9-1.6-29.9c-0.4-10-0.5-19.9-0.3-29.9
			c0.2-8.3,0.5-16.6,1.1-24.9c0.2-2.8,2.6-5,5.5-5s5.2,2.2,5.5,5c0.7,8.3,1,16.6,1.1,24.9c0.2,10,0.1,19.9-0.3,29.9
			c-0.4,10-1.2,20-1.6,29.9c-0.4,10-0.9,19.9-1.2,29.9c-0.3,10-0.5,20-0.7,29.9l-0.6,29.9l-0.4,29.9l-0.2,26.5h15.9
			c0.2-15.9,0.3-31.8,0.2-47.8c0-17.1-0.1-34.2-0.3-51.2l-0.1-12.8l-0.1-6.4c-0.1-2.1-0.2-4.3-0.5-6.4c-0.2-2.1-0.6-4.3-0.8-6.4
			c-0.2-2.1-0.3-4.3-0.5-6.4l-0.7-12.8l-0.7-12.8l-0.6-12.8c-0.3-6.2-0.6-12.4-0.9-18.6c-0.2-3.8,2.9-7,6.7-7s6.9,3.2,6.7,7
			c-0.3,6.2-0.5,12.4-0.8,18.6l-0.6,12.8l-0.7,12.8l-0.7,12.8c-0.1,2.1-0.2,4.3-0.5,6.4c-0.2,2.1-0.5,4.3-0.8,6.4
			c-0.2,2.1-0.4,4.3-0.5,6.4l-0.1,6.4l-0.1,12.8c-0.2,17.1-0.3,34.2-0.3,51.2c0,15.9,0,31.8,0.2,47.8h0.9
			c31.2,0,56.4-25.3,56.4-56.4V58.8C274.5,27.6,249.2,2.4,218.1,2.4z"/>
		<path class="st1" d="M274.5,58.8v180.8c0,26.1-17.8,48.1-41.9,54.5c-4.6,1.2-9.5,1.9-14.5,1.9H58.7c-2.7,0-5.3-0.2-7.9-0.6
			C23.4,291.6,2.3,268,2.3,239.5V58.8c0-31.2,25.3-56.4,56.4-56.4h159.3C249.2,2.4,274.5,27.6,274.5,58.8z"/>
		<path class="st2" d="M101.6,226.4l0.2-14.8l0.3-14.8c0.1-4.9,0.2-9.9,0.4-14.8c0.2-4.9,0.6-9.9,1-14.8c0.4-4.9,0.8-9.9,1-14.8
			c0.3-4.9,0.4-9.9,0.6-14.8c0.3-9.9,0.5-19.8,0.6-29.7c0.1-9.9,0-19.8-0.1-29.6l-0.2-14.8l0-4.7v-7.7c0-3.1-2.5-5.6-5.6-5.6
			c-3.1,0-5.6,2.5-5.6,5.6v7.7h0l0,4.7l-0.2,14.8c-0.1,9.9-0.2,19.8-0.1,29.6c0,9.9,0.2,19.8,0.6,29.7c0.2,4.9,0.3,9.9,0.6,14.8
			c0.2,4.9,0.6,9.9,1,14.8s0.8,9.9,1,14.8c0.3,4.9,0.4,9.9,0.5,14.8l0.3,14.8l0.2,14.8c0.2,18.7,0.3,49.1,0.1,69.1h3.1
			C101.3,275.5,101.4,245,101.6,226.4z"/>
		<path class="st2" d="M179.2,226.4l0.2-14.8l0.3-14.8c0.1-4.9,0.2-9.9,0.5-14.8c0.2-4.9,0.6-9.9,1-14.8c0.4-4.9,0.8-9.9,1-14.8
			c0.3-4.9,0.4-9.9,0.6-14.8c0.3-9.9,0.5-19.8,0.6-29.7c0.1-9.9,0-19.8-0.1-29.6l-0.2-14.8l0-4.7v-7.7c0-3.1-2.5-5.6-5.6-5.6
			c-3.1,0-5.6,2.5-5.6,5.6v7.7h0l0,4.7l-0.2,14.8c-0.1,9.9-0.2,19.8-0.1,29.6c0,9.9,0.2,19.8,0.6,29.7c0.2,4.9,0.3,9.9,0.6,14.8
			c0.2,4.9,0.6,9.9,1,14.8s0.8,9.9,1,14.8c0.3,4.9,0.4,9.9,0.5,14.8l0.3,14.8l0.2,14.8c0.2,18.7,0.3,49.1,0.1,69.1h3.1
			C178.9,275.5,179,245,179.2,226.4z"/>
		<path class="st2" d="M63,247.7c0-17.1,0.1-34.2,0.3-51.2l0.1-12.8l0.1-6.4c0.1-2.1,0.2-4.3,0.5-6.4c0.2-2.1,0.5-4.3,0.8-6.4
			c0.2-2.1,0.3-4.3,0.5-6.4l0.7-12.8l0.7-12.8l0.6-12.8c0.3-6.2,0.6-12.4,0.9-18.6c0.2-3.8-2.9-7-6.7-7s-6.9,3.2-6.7,7
			c0.3,6.2,0.5,12.4,0.9,18.6l0.6,12.8l0.7,12.8l0.7,12.8c0.1,2.1,0.2,4.3,0.5,6.4c0.2,2.1,0.5,4.3,0.8,6.4c0.2,2.1,0.4,4.3,0.5,6.4
			l0.1,6.4l0.1,12.8c0.2,17.1,0.3,34.2,0.3,51.2c0,15.9,0,31.8-0.2,47.8h3.5C63,279.5,62.9,263.6,63,247.7z"/>
		<path class="st2" d="M216.9,247.7c0-17.1,0.1-34.2,0.3-51.2l0.1-12.8l0.1-6.4c0.1-2.1,0.2-4.3,0.5-6.4c0.2-2.1,0.6-4.3,0.8-6.4
			c0.2-2.1,0.3-4.3,0.5-6.4l0.7-12.8l0.7-12.8l0.6-12.8c0.3-6.2,0.6-12.4,0.8-18.6c0.2-3.8-2.9-7-6.7-7s-6.9,3.2-6.7,7
			c0.3,6.2,0.5,12.4,0.9,18.6l0.6,12.8l0.7,12.8l0.7,12.8c0.1,2.1,0.2,4.3,0.5,6.4c0.2,2.1,0.5,4.3,0.8,6.4c0.2,2.1,0.4,4.3,0.5,6.4
			l0.1,6.4l0.1,12.8c0.2,17.1,0.3,34.2,0.3,51.2c0.1,15.9,0,31.8-0.2,47.8h3.5C216.9,279.5,216.9,263.6,216.9,247.7z"/>
		<path class="st2" d="M82.3,239.1l0.6-29.9c0.2-10,0.3-20,0.7-29.9c0.3-10,0.8-19.9,1.2-29.9c0.4-10,1.1-19.9,1.6-29.9
			c0.4-10,0.5-19.9,0.3-29.9c-0.2-8.3-0.4-16.6-1.1-24.9c-0.2-2.8-2.6-5-5.5-5s-5.2,2.2-5.5,5c-0.7,8.3-1,16.6-1.1,24.9
			c-0.2,10-0.1,19.9,0.3,29.9c0.4,10,1.2,20,1.6,29.9c0.4,10,0.9,19.9,1.2,29.9c0.3,10,0.5,20,0.7,29.9l0.5,29.9l0.4,29.9l0.2,26.5
			h3.2l0.2-26.5L82.3,239.1z"/>
		<path class="st2" d="M198.4,239.1l0.6-29.9c0.2-10,0.3-20,0.7-29.9c0.3-10,0.8-19.9,1.2-29.9c0.4-10,1.1-19.9,1.6-29.9
			c0.4-10,0.5-19.9,0.3-29.9c-0.2-8.3-0.5-16.6-1.1-24.9c-0.2-2.8-2.6-5-5.5-5s-5.2,2.2-5.5,5c-0.7,8.3-1,16.6-1.1,24.9
			c-0.2,10-0.1,19.9,0.3,29.9c0.5,10,1.2,20,1.6,29.9c0.4,10,0.9,19.9,1.2,29.9c0.3,10,0.5,20,0.7,29.9l0.5,29.9l0.4,29.9l0.2,26.5
			h3.3l0.2-26.5L198.4,239.1z"/>
		<path class="st2" d="M141.1,233.5c0.3-10.9,0.6-21.8,1-32.7c0.5-10.9,1.2-21.8,1.8-32.7c0.7-10.9,1.2-21.8,1.5-32.7l0.2-8.2
			l0.2-8.2c0.1-5.5,0.2-10.9,0.3-16.4c0.2-19.5,0.2-39-0.3-58.5c-0.1-3.9-3.3-7-7.2-7c-3.9,0-7.1,3.1-7.2,7
			c-0.5,19.5-0.5,39-0.3,58.5c0,5.5,0.2,10.9,0.3,16.4l0.2,8.2l0.2,8.2c0.3,10.9,0.9,21.8,1.5,32.7c0.6,10.9,1.3,21.8,1.8,32.7
			c0.5,10.9,0.7,21.8,1,32.7c0.5,20.7,0.8,41.3,0.6,62h3.9C140.3,274.8,140.6,254.2,141.1,233.5z"/>
		<path class="st2" d="M161.5,234.3c0.3-10.8,0.6-21.6,1-32.3c0.5-10.8,1.2-21.6,1.8-32.3c0.7-10.8,1.2-21.6,1.5-32.3l0.2-8.1
			l0.2-8.1c0.1-5.4,0.2-10.8,0.3-16.2c0.2-19.2,0.2-38.5-0.3-57.8c-0.1-3.9-3.3-6.9-7.2-6.9c-3.9,0-7.1,3.1-7.2,6.9
			c-0.5,19.2-0.5,38.5-0.3,57.8c0,5.4,0.2,10.8,0.3,16.2l0.2,8.1l0.2,8.1c0.3,10.8,0.9,21.6,1.5,32.3c0.6,10.8,1.3,21.6,1.8,32.3
			c0.4,10.8,0.7,21.6,1,32.3c0.5,20.4,0.8,40.8,0.6,61.2h3.9C160.7,275.1,161,254.7,161.5,234.3z"/>
		<path class="st2" d="M120.9,234.3c0.3-10.8,0.6-21.6,1-32.3c0.5-10.8,1.2-21.6,1.8-32.3c0.7-10.8,1.2-21.6,1.5-32.3l0.2-8.1
			l0.2-8.1c0.1-5.4,0.2-10.8,0.3-16.2c0.2-19.2,0.2-38.5-0.3-57.8c-0.1-3.9-3.3-6.9-7.2-6.9c-3.9,0-7.1,3.1-7.2,6.9
			c-0.6,19.2-0.5,38.5-0.3,57.8c0,5.4,0.2,10.8,0.3,16.2l0.1,8.1l0.2,8.1c0.3,10.8,0.9,21.6,1.5,32.3c0.6,10.8,1.3,21.6,1.8,32.3
			c0.5,10.8,0.7,21.6,1,32.3c0.5,20.4,0.8,40.8,0.6,61.2h3.9C120.1,275.1,120.4,254.7,120.9,234.3z"/>
		<path class="st3" d="M274.5,58.8v180.8c0,26.1-17.8,48.1-41.9,54.5c-4.6,1.2-9.5,1.9-14.5,1.9H58.7c-2.7,0-5.3-0.2-7.9-0.6
			C23.4,291.6,2.3,268,2.3,239.5V58.8c0-31.2,25.3-56.4,56.4-56.4h159.3C249.2,2.4,274.5,27.6,274.5,58.8z"/>
	</g>
</g>
</svg>
