<?xml version="1.0" encoding="utf-8"?>
<!-- Generator: Adobe Illustrator 24.3.0, SVG Export Plug-In . SVG Version: 6.00 Build 0)  -->
<svg version="1.1" id="Layer_1" xmlns="http://www.w3.org/2000/svg" xmlns:xlink="http://www.w3.org/1999/xlink" x="0px" y="0px"
	 viewBox="0 0 1643.1 387.3" style="enable-background:new 0 0 1643.1 387.3;" xml:space="preserve">
<style type="text/css">
	.st0{opacity:0.86;}
	.st1{fill:#6F6F6F;}
	.st2{fill:#9E9E9E;}
	.st3{fill:#FEFEFE;}
</style>
<path d="M806.7,299.6c-1-0.8-2-1.5-3.1-2.4c0.7-1,1.2-1.7,1.7-2.5c18.1-25.7,3.5-60.7-27.7-65.2c-9.7-1.4-19.7-0.6-29.6-0.7
	c-9.3-0.1-18.7,0-28.3,0v145.8c20.9,0,41.5,0,62,0c18.3,0,34.1-11.4,39.8-28.3C827.3,329.1,821.4,310.7,806.7,299.6z M739.9,250.8
	c0-0.3,0.3-0.7,0.4-1.1c11.8,0,23.7-0.8,35.4,0.2c10.3,0.9,17.8,11.7,16.9,21.9c-0.9,11-9.5,19.4-20.9,19.7
	c-9.6,0.3-19.2,0.1-28.9,0c-1,0-3-1.5-3-2.3C739.8,276.5,739.9,263.6,739.9,250.8z M787.2,353.5c-1.6,0.4-3.3,0.6-5,0.6
	c-13,0.1-26,0-39,0.1c-2.1,0-3.5-0.3-3.4-2.9c0.1-12.3,0-24.6,0.1-36.9c0-0.7,0.3-1.5,0.6-2.5h20.7c7,0,14-0.2,21.1,0.1
	c11,0.4,19.9,8.4,20.9,18.8C804.2,341.3,797.6,350.8,787.2,353.5z"/>
<path d="M352.6,279.6c0,31.5,0,63,0,94.8c-6.9,0-13.6,0-20.9,0c0-31.6,0-63.3,0-95.1c-14.6,0-28.6,0-43,0c0,31.7,0,63.2,0,95.1
	c-7.1,0-13.8,0-20.9,0c-0.1-1.3-0.2-2.7-0.2-4.1c0-29.1-0.1-58.3,0.1-87.4c0-2,1.1-4.5,2.4-6c5.2-5.6,10.7-11,16.3-16.2
	c1.3-1.2,3.6-2.2,5.4-2.2c31-0.1,62-0.2,92.9-0.1c17.4,0.1,31.4,13.2,31.6,30.5c0.4,27.8,0.1,55.7,0.1,83.6c0,0.6-0.2,1.2-0.3,2.1
	c-6.7,0-13.2,0-20.2,0c-0.1-1.6-0.2-3.1-0.2-4.6c0-24.1,0-48.2,0-72.3c0-12.1-6.4-18.5-18.5-18.5c-7.8,0-15.6,0.1-23.4,0.1
	C353.6,279.1,353.4,279.3,352.6,279.6z"/>
<path d="M541.9,289c-0.2-17.3-14-30.5-31.3-30.7c-10.9-0.1-21.9,0.5-32.8-0.2c-7.9-0.5-13.6,1.6-18.4,7.8
	c-3.5,4.5-7.9,8.3-12.5,13.1h4.8c17.2,0,34.4,0,51.6,0c12.7,0,19.8,8.5,17.4,21.7h-4.9c-13.8,0-27.6-0.1-41.4,0
	c-3.2,0-6.5,0.2-9.7,0.9c-18.4,4.2-30.9,21.7-28.7,39.8c2.3,19.1,17.9,33,37.1,33.1c21.6,0.1,43.2,0,64.8,0c1.1,0,2.3-0.1,3.8-0.2
	c0.1-1.2,0.3-2,0.3-2.8C541.9,344.1,542.1,316.5,541.9,289z M521.2,350.9c0,2.5-1,3.1-3.3,3.1c-7.5-0.1-15.1,0-22.6,0
	c-7.1,0-14.3,0.1-21.4,0c-9.7-0.1-17-6.9-17.2-15.9s6.8-16.4,16.5-16.5c14.9-0.3,29.9,0,44.8-0.1c2.3,0,3.2,0.8,3.1,3.2
	C521,333.3,521,342.1,521.2,350.9z"/>
<path d="M946.6,289.7c-0.1-17.5-13.8-31.2-31.5-31.4c-11.5-0.1-22.9,0.3-34.3-0.2c-6-0.2-10.5,1.2-14.5,5.9
	c-4.3,5.1-9.5,9.3-14.4,14c0.2,0.3,0.4,0.6,0.6,1h3.8c17.2,0,34.4,0,51.5,0c12.7,0,19.7,8.4,17.6,21.5c-1.6,0.1-3.2,0.2-4.9,0.2
	c-13.8,0-27.6-0.1-41.4,0c-3.2,0-6.5,0.2-9.7,0.9c-18.8,4.2-30.7,21.2-28.7,40.5c1.9,18.2,18,32.4,36.9,32.5c21.9,0.1,43.7,0,65.6,0
	c1,0,2-0.1,3.2-0.2c0.1-1.4,0.2-2.5,0.2-3.6C946.6,343.8,946.6,316.7,946.6,289.7z M925.6,351.5c0,0.8-1.6,2.3-2.5,2.3
	c-15.6,0.1-31.2,0.4-46.8-0.1c-8.6-0.2-15-7.6-15-16c-0.1-8.7,6.3-15.9,15.5-16.2c13.4-0.5,26.8-0.2,40.2-0.2c2.7,0,5.4,0,8.8,0
	C925.8,331.9,925.8,341.7,925.6,351.5z"/>
<path d="M245.5,286.9c-0.2-15.2-14.4-28.3-29.7-28.6c-13.9-0.2-27.8-0.1-41.8-0.1c-1.1,0-2.6,0.1-3.3,0.7
	c-6.6,6.3-13.1,12.8-20.4,20h4.9c17.2,0,34.4,0,51.5,0c12.8,0,19.7,8.2,17.6,21.7h-5.2c-13.7,0-27.3-0.1-41,0
	c-3.2,0-6.5,0.2-9.7,0.9c-18.5,4.2-30.8,21.2-28.9,39.7c1.9,18.8,17.8,33.2,37,33.3c21.9,0.1,43.7,0,65.6,0c1,0,2-0.1,3.1-0.2
	c0.2-0.7,0.3-1.2,0.3-1.7C245.7,344.2,245.9,315.5,245.5,286.9z M221.1,354c-7.4-0.1-14.8-0.1-22.2-0.1c-7,0-14,0-21.1,0
	c-9.8-0.1-17.1-6.7-17.3-15.7c-0.2-9.3,6.8-16.6,16.7-16.7c14.8-0.2,29.6,0,44.5-0.1c2.6,0,3.4,0.9,3.3,3.4
	c-0.1,8.5-0.2,17.1,0,25.6C225,353.4,223.8,354,221.1,354z"/>
<path d="M27.4,374.7c0-7.1,0-13.7,0-20.7c1.7,0,3.2,0,4.7,0c16,0,32,0.1,48,0c16.2-0.2,26.6-16.4,19.6-30.7
	c-3.7-7.6-10-11.8-18.5-12.2c-9.4-0.4-18.8,0.2-28.1-0.8c-21.3-2.3-36.9-20.8-36.5-42.5c0.4-21.3,16.7-39.8,37.8-40.9
	c18.4-1,37-0.3,55.4-0.3c0.2,0,0.4,0.2,1,0.6c-5.1,5.1-10.3,9.9-15,15.1c-3.3,3.7-6.9,5.2-11.9,4.9c-8.1-0.4-16.1-0.2-24.2-0.1
	c-12.9,0.2-22.4,9.4-22.3,21.5c0,12.2,9.5,21.3,22.4,21.5c9.6,0.2,19.4-0.5,28.8,1c20.1,3.2,34.6,21.8,34.1,42.3
	c-0.5,20.4-16,37.9-36.2,40.6c-2.7,0.4-5.4,0.6-8.2,0.6C61.7,374.7,44.7,374.7,27.4,374.7z"/>
<path d="M1147.7,315.3c20.1,19.8,39.7,39.1,59.3,58.4c-0.2,0.3-0.3,0.7-0.5,1c-7.5,0-14.9-0.3-22.4,0.1c-4.6,0.3-7.7-1.4-10.8-4.5
	c-17.1-17.3-34.4-34.3-51.6-51.5c-1-0.9-2-1.8-3.8-3.5c0,20.4,0,39.6,0,59.1c-7.2,0-13.9,0-21,0c0-49,0-98.1,0-147.6
	c6.7,0,13.5,0,20.8,0c0,29.3,0,58.5,0,88.9c1.9-1.7,2.9-2.6,3.9-3.5c17-16.9,34.1-33.9,51-50.9c2.2-2.2,4.4-3.1,7.5-3
	c8,0.2,16,0.1,25.2,0.1C1185.8,277.7,1166.9,296.3,1147.7,315.3z"/>
<path d="M989.4,279c0,32,0,63.6,0,95.4c-7,0-13.6,0-20.6,0c-0.1-1.3-0.2-2.7-0.2-4c0-29.2-0.1-58.3,0.1-87.5c0-2,1.1-4.5,2.5-6
	c5.3-5.7,10.9-11.2,16.5-16.5c1.2-1.1,3.1-2,4.7-2c17.3-0.1,34.6-0.2,51.9,0c15.8,0.2,29.9,13.2,30.2,29c0.5,28.5,0.2,57,0.2,85.5
	c0,0.5-0.2,1-0.3,1.6c-6.7,0-13.3,0-20.4,0c0-1.6,0-3.1,0-4.6c0-24,0-47.9,0-71.9c0-12.7-6.2-18.9-18.9-18.9c-13.7,0-27.3,0-41,0
	C992.6,279,991.2,279,989.4,279z"/>
<path d="M669.8,374.5c-6.9,0-13.3,0-20.3,0c-0.1-1.5-0.2-3-0.2-4.5c0-24.2,0-48.5,0-72.7c0-11.9-6.3-18.3-18.2-18.3
	c-13.8,0-27.6,0-41.4,0c-1.4,0-2.8,0-4.7,0c0,31.9,0,63.5,0,95.3c-7.1,0-13.8,0-20.8,0c-0.1-1.4-0.2-2.8-0.2-4.1
	c0-29,0-58.1-0.1-87.1c0-2.6,0.6-4.6,2.6-6.5c5.5-5.3,10.8-10.9,16.4-16.1c1.3-1.2,3.3-2.1,5-2.1c17.2-0.1,34.4-0.2,51.6,0
	c16.5,0.2,30.4,13.9,30.5,30.3c0.2,27.6,0,55.2,0,82.8C670,372.3,669.9,373.2,669.8,374.5z"/>
<g class="st0">
	<path class="st1" d="M1553.2,215.2c-3.7-3.3-7.8-5.9-12.1-8.1c-13.7-7.3-28.4-11.6-43.6-14.7c-1.1-0.2-2.7,0.1-3.1-1.5
		c-0.3-1.2,1.1-1.9,1.8-2.6c6.9-6.8,13.5-13.7,19.8-21.1c9.3-11.1,17.3-23,24-35.8c2.5-4.7,0.3-6.7-4.1-6.7
		c-11.5,0-22.7,1.5-33.8,4.3c-11.4,2.9-22.7,6.1-33.6,10.3c-0.9,0.3-1.9,1.1-2.8,0.3c-0.8-0.7-0.2-1.7,0-2.5
		c3.5-11.3,5.2-22.9,6.9-34.5c1.2-8.2,1.1-16.3-0.2-24.5c-0.7-4.6-2.7-5.5-6.7-3.1c-6.4,3.8-12.5,7.9-18.3,12.7
		c-11.4,9.4-22.1,19.4-31.9,30.5c-2.8,3.1-3.7,2.9-5-1.1c-2.4-7.5-5.2-14.9-8.9-21.8c-2.7-5-6.1-9.5-10-13.7
		c-2.9-3.1-6.7-3.5-9.2,0.9c-2.1,3.9-4.7,7.5-6.7,11.5c-5.9,11.8-10.9,24-14.6,36.7c-1.3,4.4-1.9,4.5-5.7,2
		c-7.9-5.3-16.1-9.8-25.6-11.5c-2.7-0.5-5.1-0.4-7.1,1.3c-0.1,0.1-0.1,0.1-0.2,0.1c-0.1,0.1-0.2,0.2-0.3,0.3
		c-1.1,0.8-1.1,2.1-1.3,3.3c-1.4,8.5-1.5,17.2-0.8,25.8c0.4,4.7,0.9,9.5,1.7,14.2c0.4,2.5-0.4,3.9-3.1,3.7c-2.3-0.1-4.6,0.5-6.9,0.7
		c-6.6,0.3-12.9,1.6-19,4.3c-4.4,1.9-5.5,4.4-4.1,9c2.6,8.9,7.3,16.6,12.6,24c3.2,4.5,3.3,4.9-1.4,7.6c-6.7,3.9-12.4,8.9-17.5,14.6
		c-2.9,3.1-2.8,6.3,0,9.4c4.8,5.3,10.8,8.7,17.1,11.8c6.2,3,6.2,3.1,2.6,8.9c-3.8,6.1-7.1,12.5-9,19.5c-0.3,1-0.6,2-0.6,3
		c0,0.9,0.3,1.8,1,2.6c1.1,1.8,2.6,2.9,4.7,3.3c5.9,1.1,11.7,2,17.7,1.2c7.4-0.9,7.7-0.3,6.9,7c-0.8,7.7-0.9,15.5,0.3,23.1
		c0.7,4.2,3.5,6.1,7.6,5.1c5.3-1.3,10.4-3.1,15.1-6c2.6-1.7,5.2-3.4,7.8-5c1.8-1.1,3.1-0.7,4,1.3c0.3,0.7,0.5,1.5,0.8,2.2
		c3.7,9.5,7.7,18.9,14.1,26.9c0.9,1.1,1.7,2.4,3.5,2.1c0.2,0,0.4,0.1,0.6,0.1c1.5,0.6,2.5-0.1,3.6-1c8.3-6.5,13.4-15.5,18.3-24.6
		c2-3.9,2.3-4,5.6-1.1c9.7,8.7,19.9,16.5,31.9,21.8c1.9,0.8,3.7,2.1,5.9,0.9c0.2-0.1,0.4-0.1,0.6-0.1c1.5-0.6,2.2-1.9,2.7-3.2
		c2.1-5.5,3.7-11.1,3.7-17.1c-0.1-6.7-0.1-13.3,0-19.9c0-3.4,0.9-4.1,4.3-3.6c0.8,0.1,1.5,0.3,2.3,0.5c15.9,3.9,32,4.3,48.2,3.9
		c1.3-0.1,2.7-0.1,3.9-0.3c1.3-0.3,2.5-0.8,3.5-1.9c1.1-1.3,1.1-2.9,0.7-4.4c-0.8-2.9-1.2-5.9-2.4-8.7
		c-4.9-11.9-12.4-22.2-20.8-31.8c-2.6-3-2.5-3.7,1.3-4.9c16.9-5.3,33.3-11.5,48.8-20c4.9-2.7,9.7-5.7,14.3-9.1
		C1555.4,219.7,1555.5,217.3,1553.2,215.2z M1405.8,276.7c-7.2-5.5-13.5-11.8-18.9-20.1c-1,9.8-3.9,18-7.7,25.9c-0.1,0-0.3,0-0.5,0
		c-3.7-7.8-5.2-16.1-6.1-25.7c-5.2,7.5-10.9,12.9-17.3,17.7c-1.1-0.9-0.5-2.2-0.7-3.3c1.1-7.2,3.1-14.1,6.7-21.6
		c-7.5,3.9-14.5,6.1-21.9,7c-0.4-0.3-0.9-0.5-1.3-0.7c4.4-6.7,9.7-12.7,16.7-18.3c-8.5-0.5-16-1.8-22.7-5.7c0.1-0.1,0.1-0.3,0.2-0.5
		c6.9-3.7,14.1-6.7,22.7-8.1c-7.1-5.1-12.5-10.7-16.9-17.3c1.7-1.2,3.6-0.3,5.4-0.7c6.2,0.6,12.2,1.9,18.7,4.7
		c-3.5-7.9-5.3-15.1-6.2-22.7c0.3-1.5-0.6-3.3,0.7-4.7c6.9,4.7,12.9,10.3,17.7,18.3c1.4-11.5,3.9-21.5,8.7-31.6
		c4.2,9.7,6.1,19,6.7,28.7c6.4-9.6,14.2-17.7,22.7-25.2c0.2,0.4,0.5,0.8,0.7,1.2c-1.7,10.7-4.9,20.8-9.5,30.7
		c10-5.4,20.5-9.1,31.4-11.5c0.3,0.3,0.5,0.5,0.7,0.7c-7.1,9.3-15.2,17.6-24.6,24.8c10.9,0.1,21.1,2.3,31,5.9c0,0.1,0,0.3,0.1,0.5
		c-10,5.3-20.8,8.2-32,10.3c8.1,5.3,14.4,12.3,20.2,19.7c-0.4,1.7-1.7,1.1-2.7,0.9c-8.3-0.8-16.3-2.6-24-5.9
		c-0.8-0.3-1.7-1.2-2.9-0.5c3.3,7.2,4.9,14.8,5.7,22.7C1406.3,274,1407,275.5,1405.8,276.7z"/>
	<path class="st2" d="M1510.9,300.5c-2.3-15.6-10.9-28.1-20.5-40c-1.7-2.1-3.6-4.2-5.5-6.2c-2.9-3-2.9-3.3,1.3-4.4
		c10.2-2.7,20.1-6.4,29.8-10.3c12.2-4.9,23.8-10.9,34.6-18.3c4.1-2.8,4.1-3.1-0.1-6.2c-9-6.7-19.1-11.1-29.6-14.8
		c-9-3.1-18.3-5.1-27.6-7.1c-0.9-0.2-2.3,0.1-2.6-1c-0.3-1.1,1-1.6,1.7-2.3c12.2-11.8,23.7-24.3,33.4-38.2c4.9-7,9.2-14.4,13-22
		c1.5-2.9,1.2-3.3-2.2-3.3c-15.2-0.3-29.9,2.8-44.4,7c-9.1,2.7-18.3,5.3-27,9.1c-0.8,0.3-1.8,1.1-2.5,0.5c-0.9-0.8-0.1-1.9,0.2-2.7
		c5.3-16.3,8.3-33,8.8-50.2c0.1-4.2-0.8-8.3-1.1-12.5c-0.2-2.7-1.2-2.9-3.3-1.6c-9.8,5.9-19,12.7-27.5,20.3
		c-9.4,8.4-18.4,17.3-26.6,26.9c-2,2.3-2.3,0.7-2.8-1c-3.5-11.5-7.4-22.8-14.4-32.7c-2.1-2.9-4.4-5.5-7-7.9c-1.9-1.7-3-1.4-4.4,0.7
		c-6.9,10.3-11.9,21.5-16.5,32.9c-2.5,6.3-4.3,12.8-6.3,19.3c-1.2,4-1.3,4.1-4.6,1.7c-8.6-6.4-17.8-11.7-28.6-13.4
		c-2-0.3-3.9-0.6-5.9,0.4c-0.3-0.3-0.3-0.5-0.1-0.9c2-6.5,3.1-13.1,5.1-19.6c3.9-12.5,8.7-24.7,13.9-36.6c1.2-2.9,2.9-3.5,5.9-3.1
		c13.3,2.3,25.8,6.5,36.7,14.5c1.8,1.3,2.7,1.1,3.9-0.7c14.9-21.3,33.2-39.4,52.1-57c2-1.9,2.9-0.9,4.2,0.6
		c11.8,14.9,20.7,31.2,24.9,49.8c0.9,3.8,0.9,3.9,4.4,1.9c25.7-14.1,53.2-23.1,81.3-30.4c4.2-1.1,4.6-0.9,4.3,3.3
		c-2,26.8-6.9,52.9-17.5,77.8c-1.3,3.2-1.1,3.5,2.4,3.7c27.3,1.7,53.2,8.9,78.2,19.6c2.2,0.9,2.3,1.9,0.9,3.7
		c-7.1,8.9-14.5,17.7-22.1,26.1c-13.5,15.1-28.1,28.8-44.3,40.9c-1.7,1.3-1.9,1.9-0.1,3.4c16.3,14.4,27.4,32.3,35.8,52.2
		c1,2.3,0.7,3.6-1.8,4.5c-24.2,9.8-48.7,18.5-74.6,22.7C1514.6,299.9,1512.7,300.2,1510.9,300.5z"/>
	<path class="st2" d="M1322.7,122.2c0,0.3,0.1,0.6,0.1,0.9c-0.3,5.3-1.3,10.5-1.4,15.9c-0.1,9.7,0.8,19.3,2.4,28.7
		c0.7,4.2,0.2,4.3-4.1,4.3c-9.9-0.1-19.7,1.1-28.7,5.5c-2,1-1.9,2.3-1.4,4.1c3,10.5,8.5,19.7,15.1,28.2c2.5,3.3,2.5,3.3-1.1,5.3
		c-7.5,4.3-14.5,9.5-20.2,16.1c-3.1,3.5-3.1,4,0.1,7.3c5.9,6.1,13.3,9.9,21,13.1c3.9,1.7,3.9,1.6,1.7,5
		c-5.9,8.9-10.9,18.1-12.7,28.6c-9.4-3.5-17.2-9.5-24.8-15.8c-1.9-1.7-1.9-3.5-1.2-5.7c2.9-9,6-17.9,11.1-25.9
		c1.2-1.9,1.1-3.2-0.3-5c-6.3-8-10.9-16.9-14.9-26.2c-1.2-2.7-0.7-4.6,1.2-6.9c6.4-7.4,13.2-14.3,21.5-19.7c1.9-1.2,2.3-2.8,1.8-4.9
		c-2.9-13.1-3.3-26.3-3.2-39.6c0-2.9,1-4.5,3.6-5.5C1299.4,125.7,1310.6,122,1322.7,122.2z"/>
	<path class="st2" d="M1442.4,342.4c0-0.2,0-0.5,0.1-0.7c6.1-13.9,5.1-28.5,4-43.1c-0.3-3.1,1.1-3.3,3.5-2.7
		c16.9,4.4,33.9,6.1,51.3,5.3c3.2-0.1,6.4-0.5,9.6-0.7c2.3,11.1,1.7,22.2-0.1,33.3c-1,6.1-2.5,12.1-4.2,18.1c-0.6,2-1.5,3.3-3.9,3
		c-16.5-1.8-33-3.8-49-8.5C1449.8,345.3,1446,344.3,1442.4,342.4z"/>
	<path class="st2" d="M1293.5,285.3c9.1,3.5,18.6,3.6,28.1,2.3c3.9-0.5,4.2-0.2,3.6,3.7c-1.5,9.5-1.8,18.9-0.3,28.4
		c0.6,4.1,1.5,4.5,5.6,3.7c9-2,16.6-6.7,23.9-12.1c3.1-2.3,3.2-2.3,4.3,1.3c3.9,12.3,9.5,23.7,17.4,33.8c-5.6,5-12.5,7.5-19.3,10
		c-3.6,1.3-7.5,2.1-11.1,3.3c-2.1,0.7-3.5,0.1-4.6-1.9c-5.5-9.5-10.7-19.1-13.9-29.6c-0.9-2.9-2.3-3.9-5.2-3.7
		c-8.5,0.5-16.8-0.4-25-2.6c-2.2-0.6-3.3-1.6-3.6-4C1291.9,307,1291.6,296.2,1293.5,285.3z"/>
	<path class="st2" d="M1376.6,346.6c9.9-7.5,16.3-17.7,21.4-28.7c1.9-4.2,1.9-4.2,5.1-1.1c11.3,10.9,24.1,19.9,38.7,25.8
		c-3.5,8.7-9.1,15.9-15.3,22.7c-3.1,3.5-6.5,6.6-9.9,9.8c-1.2,1.2-2.5,2-4.4,0.8C1399.2,367.5,1386.6,358.5,1376.6,346.6z"/>
	<path class="st3" d="M1354.8,237.8c-7,5.6-12.3,11.5-16.7,18.3c-0.8-1.4-0.1-2.5,0.7-3.7c2.3-3.5,5-6.7,8-9.7
		c0.9-0.9,2-1.7,2.8-3.3c-2-0.7-4-0.8-5.9-1.2c-3.3-0.7-6.6-1.8-9.7-3.2c-1.3-0.6-2.5-1.1-1.9-2.9
		C1338.8,236,1346.2,237.3,1354.8,237.8z"/>
	<path class="st3" d="M1354.9,223.5c-8.5,1.4-15.7,4.4-22.7,8.1c-0.1-1.7,1.1-2.3,2.3-2.9c4.2-2.3,8.5-4.1,13.1-5.4
		c2.3-0.6,2.5-1.3,0.8-2.9c-3.3-3.3-6.9-6.3-9.5-10.1c-0.9-1.3-2.1-2.4-1-4.1C1342.4,212.8,1347.8,218.4,1354.9,223.5z"/>
	<path class="st3" d="M1361.3,249.8c-3.6,7.5-5.5,14.4-6.7,21.6c-1.5-0.8-1.1-2.1-1-3.5c0.6-4.7,2.3-9,3.7-13.7
		c-2.1,0-3.7,0.8-5.2,1.4c-3.1,1.1-6.4,1.9-9.7,2.4c-1.3,0.2-2.5,0.2-3.1-1.2C1346.8,255.9,1353.7,253.6,1361.3,249.8z"/>
	<path class="st3" d="M1362.1,210.2c-6.5-2.9-12.5-4.1-18.7-4.7c0.7-1.5,2.1-1.4,3.5-1.3c2.7,0.3,5.5,0.9,8.1,1.6
		c0.9,0.3,2.1,1,2.8,0.2c0.9-0.9,0-2.1-0.3-3.1c-1.3-3.8-2-7.7-2.7-11.7c-0.3-1.5-0.5-2.9,1.2-3.8
		C1356.8,195.1,1358.5,202.3,1362.1,210.2z"/>
	<path class="st3" d="M1378.7,282.5c-1.8,0.3-2.2-1.1-2.7-2.3c-2-4.5-3.1-9.2-3.9-14c-0.2-1.2-0.3-2.4-0.7-3.8
		c-1.7,0.7-2.6,2.1-3.7,3.2c-3,2.7-5.5,6-8.9,8.3c-1.1,0.7-2.1,1.3-3.3,0.7c6.3-4.8,12.1-10.3,17.3-17.7
		C1373.5,266.4,1375,274.7,1378.7,282.5z"/>
	<path class="st3" d="M1405.8,276.7c-1.3,1-2.3,0.1-3.3-0.7c-4.7-3.5-8.6-7.9-12.6-12.2c-0.5-0.5-0.8-1.3-2.1-1.7
		c-0.7,3.9-1.8,7.6-3.1,11.3c-0.8,2.4-1.8,4.7-3.1,7c-0.6,1.1-1.2,2.2-2.7,2.1c3.9-7.9,6.7-16.1,7.7-25.9
		C1392.3,264.9,1398.7,271.2,1405.8,276.7z"/>
	<path class="st3" d="M1412.6,173.1c-8.5,7.5-16.3,15.6-22.7,25.2c-0.7-9.7-2.5-19.1-6.7-28.7c-4.9,10.1-7.3,20.2-8.7,31.6
		c-4.9-7.9-10.9-13.5-17.7-18.3c1.7-1.1,2.9,0.1,4.1,1c4.5,3.3,8.2,7.4,11.9,11.5c1.2-0.2,0.9-1.2,1-1.9c1.4-7.5,3.6-14.7,6.5-21.6
		c0.5-1.3,0.9-2.5,2.7-2.5c1.9-0.1,2.4,1.2,3,2.6c3,7.1,4.3,14.6,5.1,22.3c4.6-6.7,10-12.7,15.9-18.2
		C1408.5,174.5,1409.9,172.5,1412.6,173.1z"/>
	<path class="st3" d="M1435.1,193.5c-10.9,2.5-21.4,6.1-31.4,11.5c4.7-9.9,7.9-20.1,9.5-30.7c1.7,0.9,1.3,2.3,1.1,3.8
		c-1.4,7.9-3.9,15.4-7.1,23c1.5,0.3,2.4-0.5,3.4-1.1c6.5-3.2,13.3-5.5,20.3-7.1C1432.3,192.6,1433.9,191.7,1435.1,193.5z"/>
	<path class="st3" d="M1442.3,225c-9.9-3.6-20.1-5.9-31-5.9c9.4-7.2,17.5-15.5,24.6-24.8c1.1,2.3-0.7,3.5-1.8,4.9
		c-5.1,6.1-10.6,11.9-16.8,16.9c-0.5,0.4-1,0.8-1.5,1.7c7.5,0.1,14.7,1.7,21.6,3.8C1439.4,222.1,1441.7,222.4,1442.3,225z"/>
	<path class="st3" d="M1438.8,229c-6.2,2.7-12.6,4.8-19.3,6.2c-0.9,0.2-1.7,0.4-2.6,0.5c-0.7,0.1-1.4,0.2-1.6,0.9
		c-0.1,0.8,0.6,1.1,1.1,1.5c4.3,3.5,8.5,7.1,11.7,11.7c1.3,1.7,3.5,3.1,3.1,5.7c0,0.1,0,0.1,0,0.2c-0.1,0.1-0.1,0.2-0.1,0.3
		c-0.8,1.7-2.2,2.1-4.1,1.9c-6.5-0.7-12.9-2-19.1-4.2c-1.1-0.4-2.3-1-3.8-0.9c0.1,1.8,1,3.3,1.5,5c1.1,3.9,1.7,7.8,2.2,11.7
		c0.1,1.3,0.1,2.5-1.3,3.1c-0.8-7.8-2.4-15.5-5.7-22.7c1.3-0.7,2.1,0.1,2.9,0.5c7.7,3.2,15.7,5,24,5.9c1,0.1,2.3,0.7,2.7-0.9
		c-5.8-7.4-12.1-14.4-20.2-19.7c11.3-2.1,22-5,32-10.3C1442.6,228,1440.3,228.4,1438.8,229z"/>
	<path d="M1413.7,170c-0.1,1.1-0.7,2.1-1.1,3.1c-8.5,7.5-16.3,15.6-22.7,25.2c-0.7-9.7-2.5-19.1-6.7-28.7
		c-4.9,10.1-7.3,20.2-8.7,31.6c-4.9-7.9-10.9-13.5-17.7-18.3c-0.9-1.8-1.3-3.7-1.3-5.8c0-11.8,1.5-23.4,4.3-34.8
		c0.8-3.3,1.1-3.3,3.7-0.9c7.5,7,13.4,15.1,17.9,24.1c0.5,0.9,0.6,2.5,1.9,2.4c1.2-0.1,1.3-1.6,1.8-2.6
		c6.2-13.2,14.3-25.3,23.5-36.5c0.6-0.7,1.1-1.9,2.3-1.7c1.2,0.2,1.1,1.5,1.3,2.5C1414.9,143,1415.2,156.5,1413.7,170z"/>
	<path d="M1487.2,194.7c-12.1,10.9-25.1,20.4-39.4,28c-1.7,0.9-3.5,1.9-5.5,2.2c-9.9-3.6-20.1-5.9-31-5.9
		c9.4-7.2,17.5-15.5,24.6-24.8c2.9-1.8,6.3-1.9,9.6-2.3c13.7-1.7,27.4-1.5,41,0.3c0.7,0.1,1.5,0.1,1.7,0.9
		C1488.4,193.9,1487.7,194.3,1487.2,194.7z"/>
	<path d="M1459.9,148.5c-5.1,14.1-11.7,27.4-20.1,40c-1.3,1.9-2.7,3.7-4.7,5.1c-10.9,2.5-21.4,6.1-31.4,11.5
		c4.7-9.9,7.9-20.1,9.5-30.7c0.9-2.1,2.5-3.6,4.3-4.9c12.3-9.5,25.5-17.2,39.7-23.3c1-0.5,2.3-1.7,3.3-0.6
		C1461.3,146.1,1460.3,147.4,1459.9,148.5z"/>
	<path d="M1477.9,251.8c-9.1,2.1-18.1,4.1-27.5,4.3c-6.1,0.7-12.3,0.1-18.4,0.3c-0.3,0-0.7-0.1-0.9-0.3c-0.3-0.1-0.5-0.4-0.7-0.7
		c-5.8-7.4-12.1-14.4-20.2-19.7c11.3-2.1,22-5,32-10.3c13.9,5.1,25.9,13,36.6,23C1481.3,250.5,1481.1,251.1,1477.9,251.8z"/>
	<path d="M1445.2,290.9c0.7,3.5,0.3,3.9-3,2.8c-9.8-3.2-19.5-6.7-28.4-12.1c-3.5-2.1-7.1-4.1-7.2-9c-0.8-7.8-2.4-15.5-5.7-22.7
		c1.3-0.7,2.1,0.1,2.9,0.5c7.7,3.2,15.7,5,24,5.9c1,0.1,2.3,0.7,2.7-0.9c0.3,0.1,0.5,0.1,0.8,0.2c4.3,1,8.6,0.2,12.9,0.5
		c2.1,0.1,4.1,0,6.3,0.1c-4.3,1.3-8.8,0.3-13.2,0.7c-1.7,0.1-4.2-0.9-5.1,0.5c-1,1.7,1.3,3.3,2.1,4.9
		C1439.3,271.2,1443.1,280.7,1445.2,290.9z"/>
	<path d="M1405.5,293.1c-0.6,6.1-2.4,11.9-4.7,17.6c-0.5,1.3-1.1,2.9-2.7,1.1c-7.5-8.5-14.4-17.4-18.8-28c-0.1-0.4-0.1-0.9-0.3-1.3
		c3.9-7.9,6.7-16.1,7.7-25.9c5.5,8.3,11.8,14.6,18.9,20.1C1407.7,282.2,1406.1,287.7,1405.5,293.1z"/>
	<path d="M1362.1,210.2c-6.5-2.9-12.5-4.1-18.7-4.7c-6.3,0.4-8.5-4.1-10.6-8.9c-3-6.8-5.7-13.7-7.5-20.9c-0.6-2.6,0-3.3,2.8-3
		c6.8,0.9,13.1,3.1,19.5,5.4c4.5,1.7,8.6,3.7,8.4,9.5C1356.8,195.1,1358.5,202.3,1362.1,210.2z"/>
	<path d="M1378.7,282.5c-4.5,9.6-11.3,17.3-18.9,24.5c-1,0.9-2.4,1.6-2.7-0.3c-1.8-10.6-4.6-21.2-1.7-32
		c6.3-4.8,12.1-10.3,17.3-17.7C1373.5,266.4,1375,274.7,1378.7,282.5z"/>
	<path d="M1354.9,223.5c-8.5,1.4-15.7,4.4-22.7,8.1c-6.2-1.5-10.9-5.6-15.7-9.5c-2.5-2.1-4.7-4.6-7.1-6.9c-1.2-1.2-1.3-2.2,0.5-3.1
		c8.3-3.9,17.1-5.6,26.2-6.5c0.6-0.1,1.3,0.3,1.9,0.5C1342.4,212.8,1347.8,218.4,1354.9,223.5z"/>
	<path d="M1361.3,249.8c-3.6,7.5-5.5,14.4-6.7,21.6c-0.3,4-3.1,5.9-6.2,7.4c-6.2,3-12.5,5.7-19.2,7.3c-2.5,0.6-3-0.1-2.4-2.4
		c2.1-8.5,5.5-16.6,9.6-24.3c0.7-1.3,1.9-1.9,3-2.5C1346.8,255.9,1353.7,253.6,1361.3,249.8z"/>
	<path d="M1354.8,237.8c-7,5.6-12.3,11.5-16.7,18.3c-5,2.7-10.2,0.9-15.3,0.5c-3.6-0.3-7.1-1.5-10.7-2.1c-3-0.6-2.9-1.9-1.2-3.9
		c6.1-7.2,12.9-13.6,21.1-18.3C1338.8,236,1346.2,237.3,1354.8,237.8z"/>
</g>
<g>
	<path d="M33.2,178.7H22.6V88.1h34c8.6,0,15.3,2.4,20.1,7.1c4.7,4.7,7.1,11.1,7.1,19.3c0,8.2-2.4,14.6-7.1,19.3
		c-4.7,4.7-11.4,7.1-20.1,7.1H33.2V178.7z M33.2,97v34.9h23c5.6,0,9.8-1.6,12.7-4.9c2.9-3.3,4.2-7.5,4.2-12.6s-1.4-9.3-4.2-12.6
		c-2.8-3.2-7-4.8-12.7-4.8H33.2z"/>
	<path d="M127.4,110.3c9.4,0,16.9,2.9,22.6,8.7c5.6,5.8,8.4,14.4,8.4,25.8s-2.8,20-8.5,25.8c-5.6,5.8-13.2,8.7-22.5,8.7
		s-16.8-2.9-22.5-8.7c-5.7-5.8-8.5-14.4-8.5-25.8s2.8-20,8.5-25.8C110.5,113.2,118.1,110.3,127.4,110.3z M127.4,118.7
		c-6.1,0-11,2.1-14.7,6.4c-3.8,4.3-5.6,10.9-5.6,19.7c0,8.9,1.9,15.4,5.6,19.7c3.7,4.3,8.6,6.4,14.8,6.4c6.1,0,11-2.1,14.8-6.4
		s5.6-10.9,5.6-19.7c0-8.9-1.9-15.4-5.6-19.7C138.5,120.8,133.5,118.7,127.4,118.7z"/>
	<path d="M236.3,166.2l15.4-55.3h9.9l-19.1,67.7h-11.1l-15.8-53.2h-0.7l-15.6,53.2h-11.2L169,110.9h9.9l15.4,55.3h0.7l15.6-54.3h9.2
		l15.8,54.3L236.3,166.2L236.3,166.2z"/>
	<path d="M282.5,147.7c0.1,6.8,1.9,12.4,5.4,16.7c3.4,4.3,8.5,6.4,15.2,6.4c4.6,0,8.3-1,11.3-3.1c2.9-2.1,5-4.5,6.2-7.4h11.1
		c-1.9,5.8-5.4,10.4-10.3,13.9c-5,3.4-11.1,5.2-18.5,5.2c-9.7,0-17.3-3-22.7-9.1s-8.1-14.6-8.1-25.4c0-10.9,2.7-19.4,8.2-25.4
		s12.9-9.1,22.2-9.1c7.5,0,13.5,1.6,18.1,4.7s7.9,7.5,9.9,13.1c2,5.6,2.9,12.1,2.6,19.6h-50.6L282.5,147.7L282.5,147.7z
		 M282.6,140.2h39.6c-0.2-4.1-1-7.8-2.4-11c-1.4-3.2-3.4-5.8-6.2-7.7c-2.8-1.9-6.5-2.8-11.3-2.8c-6,0-10.7,2-14.1,6
		C284.8,128.7,283,133.8,282.6,140.2z"/>
	<path d="M349.1,110.9h9.6l0.7,19.7c2-5.8,5.1-10.7,9.2-14.6s9.6-5.8,16.6-5.8c0.8,0,1.6,0,2.5,0.1c0.8,0.1,1.6,0.2,2.3,0.3
		l-0.7,9.7c-1.3-0.5-3-0.7-5.2-0.7c-5,0-9.1,1.2-12.4,3.7s-5.9,5.8-7.8,10s-3.3,9-4.1,14.3l-0.1-0.1v30.9h-10.6V110.9z"/>
	<path d="M409.1,147.7c0.1,6.8,1.9,12.4,5.4,16.7c3.4,4.3,8.5,6.4,15.2,6.4c4.6,0,8.3-1,11.3-3.1c2.9-2.1,5-4.5,6.2-7.4h11.1
		c-1.9,5.8-5.4,10.4-10.3,13.9c-5,3.4-11.1,5.2-18.5,5.2c-9.7,0-17.3-3-22.7-9.1s-8.1-14.6-8.1-25.4c0-10.9,2.7-19.4,8.2-25.4
		s12.9-9.1,22.2-9.1c7.5,0,13.5,1.6,18.1,4.7s7.9,7.5,9.9,13.1c2,5.6,2.9,12.1,2.6,19.6h-50.6L409.1,147.7L409.1,147.7z
		 M409.2,140.2h39.6c-0.2-4.1-1-7.8-2.4-11c-1.4-3.2-3.4-5.8-6.2-7.7c-2.8-1.9-6.5-2.8-11.3-2.8c-6,0-10.7,2-14.1,6
		C411.4,128.7,409.6,133.8,409.2,140.2z"/>
	<path d="M470.3,144.9c0-7,1.1-13.1,3.2-18.3c2.1-5.2,5.2-9.2,9.2-12c4-2.9,8.7-4.3,14.2-4.3c3.9,0,7.6,0.8,10.9,2.5
		s6.4,4.1,9.1,7.2V84.3h10.7v94.4h-9.1l-1.1-9.5c-2.8,3.3-5.9,5.8-9.3,7.5s-7.2,2.6-11.2,2.6c-8.2,0-14.7-3.1-19.4-9.4
		C472.7,163.7,470.3,155.4,470.3,144.9z M481,144.9c0,7.9,1.7,14.1,5,18.9c3.3,4.7,7.9,7.1,13.7,7.1c3.4,0,6.6-0.9,9.5-2.8
		c2.9-1.9,5.5-4.4,7.8-7.5v-31.5c-2.2-3.1-4.8-5.6-7.8-7.5s-6.1-2.8-9.5-2.8c-5.8,0-10.4,2.4-13.7,7.2
		C482.6,130.7,481,137,481,144.9z"/>
	<path d="M585.5,178.7h-9V84.1h10.6v36c2.8-3.1,5.9-5.6,9.2-7.2c3.4-1.7,7-2.5,10.9-2.5c8.2,0,14.7,3.1,19.4,9.4
		c4.8,6.2,7.1,14.6,7.1,25.1c0,7-1.1,13.1-3.2,18.3c-2.2,5.2-5.2,9.2-9.2,12.1s-8.7,4.3-14.1,4.3c-4.1,0-7.8-0.9-11.2-2.7
		c-3.4-1.8-6.6-4.3-9.4-7.6L585.5,178.7z M604.6,118.7c-3.4,0-6.7,0.9-9.6,2.8c-3,1.9-5.6,4.4-7.8,7.6v31.1c2.2,3.2,4.8,5.7,7.8,7.7
		c3,1.9,6.2,2.9,9.6,2.9c5.8,0,10.3-2.4,13.6-7.2s5-11.1,5-19s-1.7-14.1-5-18.9C614.9,121.1,610.3,118.7,604.6,118.7z"/>
	<path d="M640.4,110.9h11.3l20,57.3h0.7l19.4-57.3H703l-28.4,78.3c-2.6,7.3-5.9,12.6-9.8,15.7c-3.9,3.2-9.2,4.7-15.7,4.7h-5.4v-8.8
		h2.6c5,0,8.8-0.9,11.4-2.7s4.7-5.3,6.6-10.3l2.8-7.4L640.4,110.9z"/>
	<path d="M715.1,124.5c0-2,0.7-3.8,2.1-5.1c1.4-1.4,3.1-2.1,5.2-2.1s3.8,0.7,5.3,2.1c1.4,1.4,2.1,3.1,2.1,5.1s-0.7,3.7-2.1,5.2
		c-1.4,1.4-3.2,2.2-5.3,2.2s-3.8-0.7-5.2-2.2C715.8,128.2,715.1,126.5,715.1,124.5z M715.1,172c0-2,0.7-3.8,2.1-5.1
		c1.4-1.4,3.1-2.1,5.2-2.1s3.8,0.7,5.3,2.1c1.4,1.4,2.1,3.1,2.1,5.1s-0.7,3.7-2.1,5.2c-1.4,1.4-3.2,2.2-5.3,2.2s-3.8-0.7-5.2-2.2
		C715.8,175.8,715.1,174.1,715.1,172z"/>
</g>
</svg>
